<svg xmlns="http://www.w3.org/2000/svg" width="1200" height="630" viewBox="0 0 1200 630">
  <rect width="1200" height="630" fill="#000000"/>
  <rect x="28" y="28" width="1144" height="574" rx="18" fill="none" stroke="#27272a" stroke-width="2"/>
  <g fill="none" stroke="#27272a" stroke-width="2">
    <path d="M200 140 C320 220, 420 120, 560 200 C700 280, 820 160, 1000 240"/>
    <path d="M200 220 C320 300, 420 200, 560 280 C700 360, 820 240, 1000 320"/>
    <path d="M200 300 C320 380, 420 280, 560 360 C700 440, 820 320, 1000 400"/>
    <path d="M200 380 C320 460, 420 360, 560 440 C700 520, 820 400, 1000 480"/>
  </g>
  <path d="M120 520 L420 520" stroke="#fb923c" stroke-width="10" stroke-linecap="round"/>
  <path d="M780 120 L1080 120" stroke="#fb923c" stroke-width="10" stroke-linecap="round"/>
  <circle cx="120" cy="120" r="10" fill="#fb923c"/>
  <circle cx="1080" cy="520" r="10" fill="#fb923c"/>
</svg>
